STARTFONT 2.1
FONT -WRI-Mathematica4Mono-Medium-R-Normal--24-240-75-75-M-190-Adobe-FontSpecific
SIZE 24 75 75
FONTBOUNDINGBOX 65 26 -2 -7
STARTPROPERTIES 16
FOUNDRY "WRI"
FAMILY_NAME "Mathematica4Mono"
WEIGHT_NAME "Medium"
SLANT "R"
SETWIDTH_NAME "Normal"
PIXEL_SIZE 24
POINT_SIZE 240
RESOLUTION_X 75
RESOLUTION_Y 75
SPACING "M"
AVERAGE_WIDTH 190
CHARSET_REGISTRY "Adobe"
CHARSET_ENCODING "FontSpecific"
FONT_DESCENT 7
FONT_ASCENT 19
DEFAULT_CHAR 32
ENDPROPERTIES
CHARS 224
STARTCHAR space
ENCODING 32
SWIDTH 263 0
DWIDTH 6 0
BBX 0 0 0 0
BITMAP
ENDCHAR
STARTCHAR RArrowBar
ENCODING 33
SWIDTH 757 0
DWIDTH 18 0
BBX 16 12 1 -1
BITMAP
0080
01c3
00e3
0073
003b
ffff
ffff
003b
0073
00e3
01c3
0080
ENDCHAR
STARTCHAR LTackArrow
ENCODING 34
SWIDTH 757 0
DWIDTH 18 0
BBX 16 12 1 -1
BITMAP
0400
0e03
1c03
3803
7003
ffff
ffff
7003
3803
1c03
0e03
0400
ENDCHAR
STARTCHAR RTackArrow
ENCODING 35
SWIDTH 757 0
DWIDTH 18 0
BBX 16 12 1 -1
BITMAP
0020
c070
c038
c01c
c00e
ffff
ffff
c00e
c01c
c038
c070
0020
ENDCHAR
STARTCHAR UpArrowBar
ENCODING 36
SWIDTH 600 0
DWIDTH 14 0
BBX 12 17 2 0
BITMAP
7fe0
7fe0
0600
0f00
1f80
3fc0
76e0
e670
4620
0600
0600
0600
0600
0600
0600
0600
0600
ENDCHAR
STARTCHAR DownArrowBar
ENCODING 37
SWIDTH 600 0
DWIDTH 14 0
BBX 12 16 2 0
BITMAP
0600
0600
0600
0600
0600
0600
0600
4620
e670
76e0
3fc0
1f80
0f00
0600
7fe0
7fe0
ENDCHAR
STARTCHAR UpTackArrow
ENCODING 38
SWIDTH 600 0
DWIDTH 14 0
BBX 12 16 2 0
BITMAP
0600
0f00
1f80
3fc0
76e0
e670
4620
0600
0600
0600
0600
0600
0600
0600
7fe0
7fe0
ENDCHAR
STARTCHAR DownTackArrow
ENCODING 39
SWIDTH 600 0
DWIDTH 14 0
BBX 12 16 2 0
BITMAP
7fe0
7fe0
0600
0600
0600
0600
0600
0600
0600
4620
e670
76e0
3fc0
1f80
0f00
0600
ENDCHAR
STARTCHAR LVectorBar
ENCODING 40
SWIDTH 757 0
DWIDTH 18 0
BBX 16 10 1 0
BITMAP
c100
c380
c700
ce00
dfff
ffff
c000
c000
c000
c000
ENDCHAR
STARTCHAR RVectorBar
ENCODING 41
SWIDTH 757 0
DWIDTH 18 0
BBX 16 10 1 0
BITMAP
0083
01c3
00e3
0073
fffb
ffff
0003
0003
0003
0003
ENDCHAR
STARTCHAR DownLVectorBar
ENCODING 42
SWIDTH 757 0
DWIDTH 18 0
BBX 16 10 1 0
BITMAP
c000
c000
c000
c000
ffff
dfff
ce00
c700
c380
c100
ENDCHAR
STARTCHAR DownRVectorBar
ENCODING 43
SWIDTH 757 0
DWIDTH 18 0
BBX 16 10 1 0
BITMAP
0003
0003
0003
0003
ffff
fffb
0073
00e3
01c3
0083
ENDCHAR
STARTCHAR LTackVector
ENCODING 44
SWIDTH 757 0
DWIDTH 18 0
BBX 16 10 1 0
BITMAP
0403
0e03
1c03
3803
7fff
ffff
0003
0003
0003
0003
ENDCHAR
STARTCHAR RTackVector
ENCODING 45
SWIDTH 757 0
DWIDTH 18 0
BBX 16 10 1 0
BITMAP
c020
c070
c038
c01c
fffe
ffff
c000
c000
c000
c000
ENDCHAR
STARTCHAR DownLTackVector
ENCODING 46
SWIDTH 757 0
DWIDTH 18 0
BBX 16 10 1 0
BITMAP
0003
0003
0003
0003
ffff
7fff
3803
1c03
0e03
0403
ENDCHAR
STARTCHAR DownRTackVector
ENCODING 47
SWIDTH 757 0
DWIDTH 18 0
BBX 16 10 1 0
BITMAP
c000
c000
c000
c000
ffff
fffe
c01c
c038
c070
c020
ENDCHAR
STARTCHAR LVector
ENCODING 48
SWIDTH 720 0
DWIDTH 17 0
BBX 15 6 1 4
BITMAP
0400
0e00
1c00
3800
7ffe
fffe
ENDCHAR
STARTCHAR RVector
ENCODING 49
SWIDTH 720 0
DWIDTH 17 0
BBX 15 6 1 4
BITMAP
0040
00e0
0070
0038
fffc
fffe
ENDCHAR
STARTCHAR LRVector
ENCODING 50
SWIDTH 790 0
DWIDTH 19 0
BBX 17 6 1 4
BITMAP
041000
0e3800
1c1c00
380e00
7fff00
ffff80
ENDCHAR
STARTCHAR DownLVector
ENCODING 51
SWIDTH 720 0
DWIDTH 17 0
BBX 15 6 1 0
BITMAP
fffe
7ffe
3800
1c00
0e00
0400
ENDCHAR
STARTCHAR DownRVector
ENCODING 52
SWIDTH 720 0
DWIDTH 17 0
BBX 15 6 1 0
BITMAP
fffe
fffc
0038
0070
00e0
0040
ENDCHAR
STARTCHAR DownLRVector
ENCODING 53
SWIDTH 790 0
DWIDTH 19 0
BBX 17 6 1 0
BITMAP
ffff80
7fff00
380e00
1c1c00
0e3800
041000
ENDCHAR
STARTCHAR LUpDownVector
ENCODING 54
SWIDTH 600 0
DWIDTH 14 0
BBX 6 17 3 0
BITMAP
04
0c
1c
3c
7c
ec
4c
0c
0c
0c
4c
ec
7c
3c
1c
0c
04
ENDCHAR
STARTCHAR RUpDownVector
ENCODING 55
SWIDTH 600 0
DWIDTH 14 0
BBX 6 17 7 0
BITMAP
80
c0
e0
f0
f8
dc
c8
c0
c0
c0
c8
dc
f8
f0
e0
c0
80
ENDCHAR
STARTCHAR LUpVectorBar
ENCODING 56
SWIDTH 600 0
DWIDTH 14 0
BBX 11 17 3 0
BITMAP
ffe0
ffe0
0400
0c00
1c00
3c00
7c00
ec00
4c00
0c00
0c00
0c00
0c00
0c00
0c00
0c00
0c00
ENDCHAR
STARTCHAR LDownVectorBar
ENCODING 57
SWIDTH 600 0
DWIDTH 14 0
BBX 10 16 3 0
BITMAP
0c00
0c00
0c00
0c00
0c00
0c00
0c00
4c00
ec00
7c00
3c00
1c00
0c00
0400
ffc0
ffc0
ENDCHAR
STARTCHAR RUpVectorBar
ENCODING 58
SWIDTH 600 0
DWIDTH 14 0
BBX 10 17 3 0
BITMAP
ffc0
ffc0
0800
0c00
0e00
0f00
0f80
0dc0
0c80
0c00
0c00
0c00
0c00
0c00
0c00
0c00
0c00
ENDCHAR
STARTCHAR RDownVectorBar
ENCODING 59
SWIDTH 600 0
DWIDTH 14 0
BBX 11 16 3 0
BITMAP
0c00
0c00
0c00
0c00
0c00
0c00
0c00
0c40
0ce0
0dc0
0f80
0e00
0c00
0800
ffc0
ffc0
ENDCHAR
STARTCHAR LUpTackVector
ENCODING 60
SWIDTH 600 0
DWIDTH 14 0
BBX 10 16 3 0
BITMAP
0400
0c00
1c00
3c00
7c00
ec00
4c00
0c00
0c00
0c00
0c00
0c00
0c00
0c00
ffc0
ffc0
ENDCHAR
STARTCHAR LDownTackVector
ENCODING 61
SWIDTH 600 0
DWIDTH 14 0
BBX 10 16 3 0
BITMAP
ffc0
ffc0
0c00
0c00
0c00
0c00
0c00
0c00
0c00
4c00
ec00
7c00
3c00
1c00
0c00
0400
ENDCHAR
STARTCHAR RUpTackVector
ENCODING 62
SWIDTH 600 0
DWIDTH 14 0
BBX 10 16 3 0
BITMAP
0800
0c00
0e00
0f00
0f80
0dc0
0c80
0c00
0c00
0c00
0c00
0c00
0c00
0c00
ffc0
ffc0
ENDCHAR
STARTCHAR RDownTackVector
ENCODING 63
SWIDTH 600 0
DWIDTH 14 0
BBX 10 16 3 0
BITMAP
ffc0
ffc0
0c00
0c00
0c00
0c00
0c00
0c00
0c00
0c80
0dc0
0f80
0f00
0e00
0c00
0800
ENDCHAR
STARTCHAR LUpVector
ENCODING 64
SWIDTH 600 0
DWIDTH 14 0
BBX 6 15 3 0
BITMAP
04
0c
1c
3c
7c
ec
4c
0c
0c
0c
0c
0c
0c
0c
0c
ENDCHAR
STARTCHAR ExtensUp1
ENCODING 65
SWIDTH 600 0
DWIDTH 14 0
BBX 2 5 7 0
BITMAP
c0
c0
c0
c0
c0
ENDCHAR
STARTCHAR LDownVector
ENCODING 66
SWIDTH 600 0
DWIDTH 14 0
BBX 6 15 3 0
BITMAP
0c
0c
0c
0c
0c
0c
0c
0c
4c
ec
7c
3c
1c
0c
04
ENDCHAR
STARTCHAR RUpVector
ENCODING 67
SWIDTH 600 0
DWIDTH 14 0
BBX 6 15 7 0
BITMAP
80
c0
e0
f0
f8
dc
c8
c0
c0
c0
c0
c0
c0
c0
c0
ENDCHAR
STARTCHAR ExtensUp2
ENCODING 68
SWIDTH 600 0
DWIDTH 14 0
BBX 2 5 7 0
BITMAP
c0
c0
c0
c0
c0
ENDCHAR
STARTCHAR RDownVector
ENCODING 69
SWIDTH 600 0
DWIDTH 14 0
BBX 6 15 7 0
BITMAP
c0
c0
c0
c0
c0
c0
c0
c0
c8
dc
f8
f0
e0
c0
80
ENDCHAR
STARTCHAR Equilibrium
ENCODING 70
SWIDTH 720 0
DWIDTH 17 0
BBX 15 11 1 0
BITMAP
0020
0070
0038
fffc
fffe
0000
fffe
7ffe
3800
1c00
0800
ENDCHAR
STARTCHAR RvrsEquilibrium
ENCODING 71
SWIDTH 720 0
DWIDTH 17 0
BBX 15 11 1 0
BITMAP
0800
1c00
3800
7ffe
fffe
0000
fffe
fffc
0038
0070
0020
ENDCHAR
STARTCHAR EquilbrmHeadL
ENCODING 72
SWIDTH 262 0
DWIDTH 6 0
BBX 6 8 1 0
BITMAP
f8
f8
00
f8
78
38
1c
08
ENDCHAR
STARTCHAR EquilbrmheadR
ENCODING 73
SWIDTH 262 0
DWIDTH 6 0
BBX 6 8 -1 3
BITMAP
40
e0
70
78
7c
00
7c
7c
ENDCHAR
STARTCHAR RvrsEquilbrmHeadL
ENCODING 74
SWIDTH 262 0
DWIDTH 6 0
BBX 6 8 1 3
BITMAP
08
1c
38
78
f8
00
f8
f8
ENDCHAR
STARTCHAR RvrsEquilbrmHeadR
ENCODING 75
SWIDTH 262 0
DWIDTH 6 0
BBX 6 8 -1 0
BITMAP
7c
7c
00
7c
78
70
e0
40
ENDCHAR
STARTCHAR UpEquilibrium
ENCODING 76
SWIDTH 600 0
DWIDTH 14 0
BBX 11 15 2 0
BITMAP
0b00
1b00
3b00
7b00
fb00
5b00
1b00
1b00
1b00
1b40
1be0
1bc0
1b80
1b00
1a00
ENDCHAR
STARTCHAR RvrsUpEquilibrium
ENCODING 77
SWIDTH 600 0
DWIDTH 14 0
BBX 11 15 2 0
BITMAP
1a00
1b00
1b80
1bc0
1be0
1b40
1b00
1b00
1b00
5b00
fb00
7b00
3b00
1b00
0b00
ENDCHAR
STARTCHAR LArrowHookUp
ENCODING 78
SWIDTH 720 0
DWIDTH 17 0
BBX 15 12 1 -1
BITMAP
0400
0e00
1c0c
380e
7006
fffe
fffc
7000
3800
1c00
0e00
0400
ENDCHAR
STARTCHAR RArrowHookUp
ENCODING 79
SWIDTH 720 0
DWIDTH 17 0
BBX 15 12 1 -1
BITMAP
0040
00e0
6070
e038
c01c
fffe
7ffe
001c
0038
0070
00e0
0040
ENDCHAR
STARTCHAR LArrow
ENCODING 80
SWIDTH 720 0
DWIDTH 17 0
BBX 15 12 1 -1
BITMAP
0400
0e00
1c00
3800
7000
fffe
fffe
7000
3800
1c00
0e00
0400
ENDCHAR
STARTCHAR Extens
ENCODING 81
SWIDTH 200 0
DWIDTH 5 0
BBX 5 2 0 4
BITMAP
f8
f8
ENDCHAR
STARTCHAR LeftTackBase
ENCODING 82
SWIDTH 114 0
DWIDTH 3 0
BBX 4 10 0 0
BITMAP
30
30
30
30
f0
f0
30
30
30
30
ENDCHAR
STARTCHAR RightTackBase
ENCODING 83
SWIDTH 114 0
DWIDTH 3 0
BBX 4 10 0 0
BITMAP
c0
c0
c0
c0
f0
f0
c0
c0
c0
c0
ENDCHAR
STARTCHAR RArrow
ENCODING 84
SWIDTH 720 0
DWIDTH 17 0
BBX 15 12 1 -1
BITMAP
0040
00e0
0070
0038
001c
fffe
fffe
001c
0038
0070
00e0
0040
ENDCHAR
STARTCHAR RUpVector2
ENCODING 85
SWIDTH 600 0
DWIDTH 14 0
BBX 7 15 7 0
BITMAP
80
c0
e0
f8
dc
ce
c4
c0
c0
c0
c0
c0
c0
c0
c0
ENDCHAR
STARTCHAR RArrowLArrow
ENCODING 86
SWIDTH 720 0
DWIDTH 17 0
BBX 15 11 1 0
BITMAP
0010
0038
001c
fffe
fffe
701c
fffe
fffe
7000
3800
1000
ENDCHAR
STARTCHAR LArrowRArrow
ENCODING 87
SWIDTH 720 0
DWIDTH 17 0
BBX 15 11 1 0
BITMAP
1000
3800
7000
fffe
fffe
701c
fffe
fffe
001c
0038
0010
ENDCHAR
STARTCHAR RArrowLArrowHeadL
ENCODING 88
SWIDTH 213 0
DWIDTH 5 0
BBX 5 8 1 0
BITMAP
f0
f8
70
f0
f0
70
38
10
ENDCHAR
STARTCHAR RArrowLArrowHeadR
ENCODING 89
SWIDTH 213 0
DWIDTH 5 0
BBX 5 8 -1 3
BITMAP
40
e0
70
78
78
70
f8
78
ENDCHAR
STARTCHAR LArrowRArrowHeadL
ENCODING 90
SWIDTH 213 0
DWIDTH 5 0
BBX 5 8 1 3
BITMAP
10
38
70
f0
f0
70
f8
f0
ENDCHAR
STARTCHAR LArrowRArrowHeadR
ENCODING 91
SWIDTH 213 0
DWIDTH 5 0
BBX 5 8 -1 0
BITMAP
78
f8
70
78
78
70
e0
40
ENDCHAR
STARTCHAR UpArrowDownArrow
ENCODING 92
SWIDTH 600 0
DWIDTH 14 0
BBX 11 15 2 0
BITMAP
1b00
3f00
7f00
ff00
5b00
1b00
1b00
1b00
1b00
1b00
1b40
1fe0
1fc0
1f80
1b00
ENDCHAR
STARTCHAR DownArrowUpArrow
ENCODING 93
SWIDTH 600 0
DWIDTH 14 0
BBX 11 15 2 0
BITMAP
1b00
1f80
1fc0
1fe0
1b40
1b00
1b00
1b00
1b00
1b00
5b00
ff00
7f00
3f00
1b00
ENDCHAR
STARTCHAR VertExt1
ENCODING 94
SWIDTH 600 0
DWIDTH 14 0
BBX 2 5 7 0
BITMAP
c0
c0
c0
c0
c0
ENDCHAR
STARTCHAR HorizExt1
ENCODING 95
SWIDTH 200 0
DWIDTH 5 0
BBX 5 2 0 0
BITMAP
f8
f8
ENDCHAR
STARTCHAR UpArrow
ENCODING 96
SWIDTH 600 0
DWIDTH 14 0
BBX 12 15 2 0
BITMAP
0600
0f00
1f80
3fc0
76e0
e670
4620
0600
0600
0600
0600
0600
0600
0600
0600
ENDCHAR
STARTCHAR UpTackBase
ENCODING 97
SWIDTH 600 0
DWIDTH 14 0
BBX 10 4 3 0
BITMAP
0c00
0c00
ffc0
ffc0
ENDCHAR
STARTCHAR DownTackBase
ENCODING 98
SWIDTH 600 0
DWIDTH 14 0
BBX 10 4 3 0
BITMAP
ffc0
ffc0
0c00
0c00
ENDCHAR
STARTCHAR DownArrow
ENCODING 99
SWIDTH 600 0
DWIDTH 14 0
BBX 12 15 2 0
BITMAP
0600
0600
0600
0600
0600
0600
0600
0600
4620
e670
76e0
3fc0
1f80
0f00
0600
ENDCHAR
STARTCHAR RDownVector2
ENCODING 100
SWIDTH 600 0
DWIDTH 14 0
BBX 6 15 7 0
BITMAP
c0
c0
c0
c0
c0
c0
c0
c0
c8
dc
f8
f0
e0
c0
80
ENDCHAR
STARTCHAR UpEquilbrmHeadBttm
ENCODING 101
SWIDTH 600 0
DWIDTH 14 0
BBX 8 6 5 0
BITMAP
da
df
de
dc
d8
d0
ENDCHAR
STARTCHAR DblUpExtens2
ENCODING 102
SWIDTH 600 0
DWIDTH 14 0
BBX 5 5 5 0
BITMAP
d8
d8
d8
d8
d8
ENDCHAR
STARTCHAR RvrsUpEquilbrmHeadTop
ENCODING 103
SWIDTH 600 0
DWIDTH 14 0
BBX 8 6 5 0
BITMAP
d0
d8
dc
de
df
da
ENDCHAR
STARTCHAR UpEquilbrmHeadTop
ENCODING 104
SWIDTH 600 0
DWIDTH 14 0
BBX 8 6 2 0
BITMAP
0b
1b
3b
7b
fb
5b
ENDCHAR
STARTCHAR DblUpExtens1
ENCODING 105
SWIDTH 600 0
DWIDTH 14 0
BBX 5 5 5 0
BITMAP
d8
d8
d8
d8
d8
ENDCHAR
STARTCHAR RvrsUpEquilbrmHeadBttm
ENCODING 106
SWIDTH 600 0
DWIDTH 14 0
BBX 8 6 2 0
BITMAP
5b
fb
7b
3b
1b
0b
ENDCHAR
STARTCHAR UpArrwDwnArrwBttm
ENCODING 107
SWIDTH 600 0
DWIDTH 14 0
BBX 8 5 5 0
BITMAP
da
ff
fe
fc
d8
ENDCHAR
STARTCHAR DwnArrwUpArrwTop
ENCODING 108
SWIDTH 600 0
DWIDTH 14 0
BBX 8 5 5 0
BITMAP
d8
fc
fe
ff
da
ENDCHAR
STARTCHAR UpArrwDwnArrwTop
ENCODING 109
SWIDTH 600 0
DWIDTH 14 0
BBX 8 5 2 0
BITMAP
1b
3f
7f
ff
5b
ENDCHAR
STARTCHAR DwnArrwUpArrwBttm
ENCODING 110
SWIDTH 600 0
DWIDTH 14 0
BBX 8 5 2 0
BITMAP
5b
ff
7f
3f
1b
ENDCHAR
STARTCHAR DblExtens
ENCODING 111
SWIDTH 200 0
DWIDTH 5 0
BBX 5 5 0 3
BITMAP
f8
f8
00
f8
f8
ENDCHAR
STARTCHAR OverBracket1
ENCODING 112
SWIDTH 838 0
DWIDTH 20 0
BBX 20 4 0 0
BITMAP
fffff0
fffff0
c00030
c00030
ENDCHAR
STARTCHAR OverBracket2
ENCODING 113
SWIDTH 1438 0
DWIDTH 35 0
BBX 35 4 0 0
BITMAP
ffffffffe0
ffffffffe0
c000000060
c000000060
ENDCHAR
STARTCHAR OverBracket3
ENCODING 114
SWIDTH 2038 0
DWIDTH 49 0
BBX 49 4 0 0
BITMAP
ffffffffffff80
ffffffffffff80
c0000000000180
c0000000000180
ENDCHAR
STARTCHAR OverBracket4
ENCODING 115
SWIDTH 2638 0
DWIDTH 63 0
BBX 63 4 0 0
BITMAP
fffffffffffffffe
fffffffffffffffe
c000000000000006
c000000000000006
ENDCHAR
STARTCHAR OverBracketExt1
ENCODING 116
SWIDTH 300 0
DWIDTH 7 0
BBX 7 4 0 0
BITMAP
fe
fe
c0
c0
ENDCHAR
STARTCHAR OverBracketExt2
ENCODING 117
SWIDTH 300 0
DWIDTH 7 0
BBX 8 2 0 2
BITMAP
ff
ff
ENDCHAR
STARTCHAR OverBracketExt3
ENCODING 118
SWIDTH 300 0
DWIDTH 7 0
BBX 7 4 0 0
BITMAP
fe
fe
06
06
ENDCHAR
STARTCHAR ShortUpArrow
ENCODING 119
SWIDTH 600 0
DWIDTH 14 0
BBX 12 12 2 0
BITMAP
0600
0f00
1f80
3fc0
76e0
e670
4620
0600
0600
0600
0600
0600
ENDCHAR
STARTCHAR ShortDownArrow
ENCODING 120
SWIDTH 600 0
DWIDTH 14 0
BBX 12 12 2 0
BITMAP
0600
0600
0600
0600
0600
4620
e670
76e0
3fc0
1f80
0f00
0600
ENDCHAR
STARTCHAR ShortLArrow
ENCODING 121
SWIDTH 600 0
DWIDTH 14 0
BBX 12 12 1 -1
BITMAP
0400
0e00
1c00
3800
7000
fff0
fff0
7000
3800
1c00
0e00
0400
ENDCHAR
STARTCHAR ShortRArrow
ENCODING 122
SWIDTH 600 0
DWIDTH 14 0
BBX 12 12 1 -1
BITMAP
0200
0700
0380
01c0
00e0
fff0
fff0
00e0
01c0
0380
0700
0200
ENDCHAR
STARTCHAR LArrowBar
ENCODING 123
SWIDTH 757 0
DWIDTH 18 0
BBX 16 12 1 -1
BITMAP
0100
c380
c700
ce00
dc00
ffff
ffff
dc00
ce00
c700
c380
0100
ENDCHAR
STARTCHAR Dash
ENCODING 124
SWIDTH 600 0
DWIDTH 14 0
BBX 6 2 4 4
BITMAP
fc
fc
ENDCHAR
STARTCHAR LongDash
ENCODING 125
SWIDTH 600 0
DWIDTH 14 0
BBX 12 2 1 4
BITMAP
fff0
fff0
ENDCHAR
STARTCHAR DivisionBarExtens
ENCODING 126
SWIDTH 600 0
DWIDTH 14 0
BBX 14 2 0 4
BITMAP
fffc
fffc
ENDCHAR
STARTCHAR DEL
ENCODING 127
SWIDTH 263 0
DWIDTH 6 0
BBX 0 0 0 0
BITMAP
ENDCHAR
STARTCHAR UnderBracket1
ENCODING 128
SWIDTH 838 0
DWIDTH 20 0
BBX 20 4 0 0
BITMAP
c00030
c00030
fffff0
fffff0
ENDCHAR
STARTCHAR UnderBracket2
ENCODING 129
SWIDTH 1438 0
DWIDTH 35 0
BBX 35 4 0 0
BITMAP
c000000060
c000000060
ffffffffe0
ffffffffe0
ENDCHAR
STARTCHAR UnderBracket3
ENCODING 130
SWIDTH 2038 0
DWIDTH 49 0
BBX 49 4 0 0
BITMAP
c0000000000180
c0000000000180
ffffffffffff80
ffffffffffff80
ENDCHAR
STARTCHAR UnderBracket4
ENCODING 131
SWIDTH 2638 0
DWIDTH 63 0
BBX 63 4 0 0
BITMAP
c000000000000006
c000000000000006
fffffffffffffffe
fffffffffffffffe
ENDCHAR
STARTCHAR UnderBracketExt1
ENCODING 132
SWIDTH 300 0
DWIDTH 7 0
BBX 7 4 0 0
BITMAP
c0
c0
fe
fe
ENDCHAR
STARTCHAR UnderBracketExt2
ENCODING 133
SWIDTH 300 0
DWIDTH 7 0
BBX 8 2 0 0
BITMAP
ff
ff
ENDCHAR
STARTCHAR UnderBracketExt3
ENCODING 134
SWIDTH 300 0
DWIDTH 7 0
BBX 7 4 0 0
BITMAP
06
06
fe
fe
ENDCHAR
STARTCHAR LowerLeftArrow
ENCODING 135
SWIDTH 600 0
DWIDTH 14 0
BBX 12 11 2 0
BITMAP
0020
0070
00e0
01c0
c380
c700
ce00
dc00
f800
fe00
fe00
ENDCHAR
STARTCHAR UpperLeftArrow
ENCODING 136
SWIDTH 600 0
DWIDTH 14 0
BBX 12 11 2 0
BITMAP
fe00
fe00
f800
dc00
ce00
c700
c380
01c0
00e0
0070
0020
ENDCHAR
STARTCHAR UpperRightArrow
ENCODING 137
SWIDTH 600 0
DWIDTH 14 0
BBX 12 11 1 0
BITMAP
07f0
07f0
01f0
03b0
0730
0e30
1c30
3800
7000
e000
4000
ENDCHAR
STARTCHAR LowerRightArrow
ENCODING 138
SWIDTH 600 0
DWIDTH 14 0
BBX 12 11 1 0
BITMAP
4000
e000
7000
3800
1c30
0e30
0730
03b0
01f0
07f0
07f0
ENDCHAR
STARTCHAR LongLowerLeftArrow
ENCODING 139
SWIDTH 1054 0
DWIDTH 25 0
BBX 23 22 2 -4
BITMAP
000004
00000e
00001c
000038
000070
0000e0
0001c0
000380
000700
000e00
001c00
003800
007000
00e000
01c000
c38000
c70000
ce0000
dc0000
f80000
fe0000
fe0000
ENDCHAR
STARTCHAR LongUpperLeftArrow
ENCODING 140
SWIDTH 1054 0
DWIDTH 25 0
BBX 23 22 2 -4
BITMAP
fe0000
fe0000
f80000
dc0000
ce0000
c70000
c38000
01c000
00e000
007000
003800
001c00
000e00
000700
000380
0001c0
0000e0
000070
000038
00001c
00000e
000004
ENDCHAR
STARTCHAR LongUpperRightArrow
ENCODING 141
SWIDTH 1054 0
DWIDTH 25 0
BBX 23 22 1 -4
BITMAP
0000fe
0000fe
00003e
000076
0000e6
0001c6
000386
000700
000e00
001c00
003800
007000
00e000
01c000
038000
070000
0e0000
1c0000
380000
700000
e00000
400000
ENDCHAR
STARTCHAR LongLowerRightArrow
ENCODING 142
SWIDTH 1054 0
DWIDTH 25 0
BBX 24 22 0 -4
BITMAP
e00000
700000
380000
1c0000
0e0000
070000
038000
01c000
00e000
007000
003800
001c00
000e00
000700
000380
0001c3
0000e3
000073
00003b
00001f
00007f
00007f
ENDCHAR
STARTCHAR Arrowhead
ENCODING 143
SWIDTH 600 0
DWIDTH 14 0
BBX 7 7 4 0
BITMAP
c0
c0
c0
c0
c0
fe
fe
ENDCHAR
STARTCHAR OverParen1
ENCODING 144
SWIDTH 838 0
DWIDTH 20 0
BBX 20 4 0 0
BITMAP
03fc00
1fff80
7801e0
800010
ENDCHAR
STARTCHAR OverParen2
ENCODING 145
SWIDTH 1438 0
DWIDTH 35 0
BBX 35 4 0 0
BITMAP
00ffffe000
0ffffffe00
7e00000fc0
c000000060
ENDCHAR
STARTCHAR OverParen3
ENCODING 146
SWIDTH 2038 0
DWIDTH 49 0
BBX 49 4 0 0
BITMAP
00ffffffff8000
1ffffffffffc00
7e000000003f00
c0000000000180
ENDCHAR
STARTCHAR OverParen4
ENCODING 147
SWIDTH 2638 0
DWIDTH 63 0
BBX 63 4 0 0
BITMAP
00fffffffffffe00
1ffffffffffffff0
7e000000000000fc
c000000000000006
ENDCHAR
STARTCHAR OverParenExt1
ENCODING 148
SWIDTH 600 0
DWIDTH 14 0
BBX 14 4 0 0
BITMAP
03fc
1ffc
7800
8000
ENDCHAR
STARTCHAR OverParenExt2
ENCODING 149
SWIDTH 300 0
DWIDTH 7 0
BBX 8 2 0 2
BITMAP
ff
ff
ENDCHAR
STARTCHAR OverParenExt3
ENCODING 150
SWIDTH 600 0
DWIDTH 14 0
BBX 14 4 0 0
BITMAP
ff00
ffe0
0078
0004
ENDCHAR
STARTCHAR OverBrace1
ENCODING 151
SWIDTH 838 0
DWIDTH 20 0
BBX 20 4 0 0
BITMAP
003000
7fffe0
ffcff0
c00030
ENDCHAR
STARTCHAR OverBrace2
ENCODING 152
SWIDTH 1438 0
DWIDTH 35 0
BBX 35 4 0 0
BITMAP
0000600000
7fffffffc0
ffff9fffe0
c000000060
ENDCHAR
STARTCHAR OverBrace3
ENCODING 153
SWIDTH 2038 0
DWIDTH 49 0
BBX 49 4 0 0
BITMAP
000000c0000000
7fffffffffff00
ffffff3fffff80
c0000000000180
ENDCHAR
STARTCHAR OverBrace4
ENCODING 154
SWIDTH 2638 0
DWIDTH 63 0
BBX 63 4 0 0
BITMAP
0000000180000000
7ffffffffffffffc
fffffffe7ffffffe
c000000000000006
ENDCHAR
STARTCHAR OverBraceExt1
ENCODING 155
SWIDTH 300 0
DWIDTH 7 0
BBX 7 3 0 0
BITMAP
7e
fe
c0
ENDCHAR
STARTCHAR OverBraceExt2
ENCODING 156
SWIDTH 300 0
DWIDTH 7 0
BBX 8 2 0 1
BITMAP
ff
ff
ENDCHAR
STARTCHAR OverBraceExt3
ENCODING 157
SWIDTH 300 0
DWIDTH 7 0
BBX 7 3 0 1
BITMAP
18
fe
e6
ENDCHAR
STARTCHAR OverBraceExt4
ENCODING 158
SWIDTH 300 0
DWIDTH 7 0
BBX 7 3 0 0
BITMAP
fc
fe
06
ENDCHAR
STARTCHAR AngleArrowExtension45
ENCODING 159
SWIDTH 883 0
DWIDTH 21 0
BBX 6 6 8 0
BITMAP
0c
18
38
70
60
e0
ENDCHAR
STARTCHAR UnderParen1
ENCODING 160
SWIDTH 838 0
DWIDTH 20 0
BBX 20 4 0 0
BITMAP
800010
7801e0
1fff80
03fc00
ENDCHAR
STARTCHAR UnderParen2
ENCODING 161
SWIDTH 1438 0
DWIDTH 35 0
BBX 35 4 0 0
BITMAP
c000000060
7e00000fc0
0ffffffe00
00ffffe000
ENDCHAR
STARTCHAR UnderParen3
ENCODING 162
SWIDTH 2038 0
DWIDTH 49 0
BBX 49 4 0 0
BITMAP
c0000000000180
7e000000003f00
1ffffffffffc00
00ffffffff8000
ENDCHAR
STARTCHAR UnderParen4
ENCODING 163
SWIDTH 2638 0
DWIDTH 63 0
BBX 63 4 0 0
BITMAP
c000000000000006
7e000000000000fc
1ffffffffffffff0
00fffffffffffe00
ENDCHAR
STARTCHAR UnderParenExt1
ENCODING 164
SWIDTH 600 0
DWIDTH 14 0
BBX 14 4 0 0
BITMAP
8000
7800
1ffc
03fc
ENDCHAR
STARTCHAR UnderParenExt2
ENCODING 165
SWIDTH 300 0
DWIDTH 7 0
BBX 8 2 0 0
BITMAP
ff
ff
ENDCHAR
STARTCHAR UnderParenExt3
ENCODING 166
SWIDTH 600 0
DWIDTH 14 0
BBX 14 4 0 0
BITMAP
0004
0078
ffe0
ff00
ENDCHAR
STARTCHAR UnderBrace1
ENCODING 167
SWIDTH 838 0
DWIDTH 20 0
BBX 20 4 0 -1
BITMAP
c00030
ffcff0
7fffe0
003000
ENDCHAR
STARTCHAR UnderBrace2
ENCODING 168
SWIDTH 1438 0
DWIDTH 35 0
BBX 35 4 0 -1
BITMAP
c000000060
ffff9fffe0
7fffffffc0
0000600000
ENDCHAR
STARTCHAR UnderBrace3
ENCODING 169
SWIDTH 2038 0
DWIDTH 49 0
BBX 49 4 0 -1
BITMAP
c0000000000180
ffffff3fffff80
7fffffffffff00
000000c0000000
ENDCHAR
STARTCHAR UnderBrace4
ENCODING 170
SWIDTH 2638 0
DWIDTH 63 0
BBX 63 4 0 -1
BITMAP
c000000000000006
fffffffe7ffffffe
7ffffffffffffffc
0000000180000000
ENDCHAR
STARTCHAR UnderBraceExt1
ENCODING 171
SWIDTH 300 0
DWIDTH 7 0
BBX 7 3 0 0
BITMAP
c0
fe
7e
ENDCHAR
STARTCHAR UnderBraceExt2
ENCODING 172
SWIDTH 300 0
DWIDTH 7 0
BBX 8 2 0 0
BITMAP
ff
ff
ENDCHAR
STARTCHAR UnderBraceExt3
ENCODING 173
SWIDTH 300 0
DWIDTH 7 0
BBX 7 3 0 -1
BITMAP
e6
fe
18
ENDCHAR
STARTCHAR UnderBraceExt4
ENCODING 174
SWIDTH 300 0
DWIDTH 7 0
BBX 7 3 0 0
BITMAP
06
fe
fc
ENDCHAR
STARTCHAR AngleArrowExtension135
ENCODING 175
SWIDTH 883 0
DWIDTH 21 0
BBX 6 6 8 0
BITMAP
e0
60
70
38
18
0c
ENDCHAR
STARTCHAR OverWedge1
ENCODING 176
SWIDTH 838 0
DWIDTH 20 0
BBX 21 6 0 0
BITMAP
007000
03fe00
0f8f80
7e03f0
f00078
800008
ENDCHAR
STARTCHAR OverWedge2
ENCODING 177
SWIDTH 1438 0
DWIDTH 35 0
BBX 35 5 0 0
BITMAP
0001f00000
007fffc000
1ffe0fff00
ff80003fe0
e0000000e0
ENDCHAR
STARTCHAR OverWedge3
ENCODING 178
SWIDTH 2038 0
DWIDTH 49 0
BBX 49 5 0 0
BITMAP
00000ff8000000
000ffffff80000
0ffff007fff800
fff0000007ff80
f0000000000780
ENDCHAR
STARTCHAR OverWedge4
ENCODING 179
SWIDTH 2638 0
DWIDTH 63 0
BBX 63 5 0 0
BITMAP
0000003ff8000000
0000fffffffe0000
07ffffc007ffffc0
ffff00000001fffe
f80000000000003e
ENDCHAR
STARTCHAR Ellipsis
ENCODING 180
SWIDTH 600 0
DWIDTH 14 0
BBX 13 3 1 0
BITMAP
e738
e738
e738
ENDCHAR
STARTCHAR CenterEllipsis
ENCODING 181
SWIDTH 600 0
DWIDTH 14 0
BBX 13 3 1 4
BITMAP
e738
e738
e738
ENDCHAR
STARTCHAR VertEllipsis
ENCODING 182
SWIDTH 600 0
DWIDTH 14 0
BBX 3 13 6 0
BITMAP
e0
e0
e0
00
00
e0
e0
e0
00
00
e0
e0
e0
ENDCHAR
STARTCHAR DiagEllipsis
ENCODING 183
SWIDTH 600 0
DWIDTH 14 0
BBX 13 13 1 -1
BITMAP
0038
0038
0038
0000
0000
0700
0700
0700
0000
0000
e000
e000
e000
ENDCHAR
STARTCHAR BackDiagEllipsis
ENCODING 184
SWIDTH 600 0
DWIDTH 14 0
BBX 13 13 1 -1
BITMAP
e000
e000
e000
0000
0000
0700
0700
0700
0000
0000
0038
0038
0038
ENDCHAR
STARTCHAR Ellipsis2
ENCODING 185
SWIDTH 988 0
DWIDTH 24 0
BBX 19 3 3 0
BITMAP
e0e0e0
e0e0e0
e0e0e0
ENDCHAR
STARTCHAR CenterEllipsis2
ENCODING 186
SWIDTH 988 0
DWIDTH 24 0
BBX 19 3 3 4
BITMAP
e0e0e0
e0e0e0
e0e0e0
ENDCHAR
STARTCHAR VertEllipsis2
ENCODING 187
SWIDTH 600 0
DWIDTH 14 0
BBX 3 19 6 0
BITMAP
e0
e0
e0
00
00
00
00
00
e0
e0
e0
00
00
00
00
00
e0
e0
e0
ENDCHAR
STARTCHAR Dot
ENCODING 188
SWIDTH 327 0
DWIDTH 8 0
BBX 3 3 3 0
BITMAP
e0
e0
e0
ENDCHAR
STARTCHAR CenterDot
ENCODING 189
SWIDTH 328 0
DWIDTH 8 0
BBX 3 3 3 4
BITMAP
e0
e0
e0
ENDCHAR
STARTCHAR BackPrime
ENCODING 190
SWIDTH 371 0
DWIDTH 9 0
BBX 6 8 1 1
BITMAP
e0
60
30
30
10
18
08
04
ENDCHAR
STARTCHAR DblBackPrime
ENCODING 191
SWIDTH 569 0
DWIDTH 14 0
BBX 11 8 1 1
BITMAP
e700
6300
3180
3180
1080
18c0
0840
0420
ENDCHAR
STARTCHAR UnderVee1
ENCODING 192
SWIDTH 838 0
DWIDTH 20 0
BBX 21 6 0 0
BITMAP
800008
f00078
7e03f0
0f8f80
03fe00
007000
ENDCHAR
STARTCHAR UnderVee2
ENCODING 193
SWIDTH 1438 0
DWIDTH 35 0
BBX 35 5 0 0
BITMAP
e0000000e0
ff80003fe0
1ffe0fff00
007fffc000
0001f00000
ENDCHAR
STARTCHAR UnderVee3
ENCODING 194
SWIDTH 2038 0
DWIDTH 49 0
BBX 49 5 0 0
BITMAP
f0000000000780
fff0000007ff80
0ffff007fff800
000ffffff80000
00000ff8000000
ENDCHAR
STARTCHAR UnderVee4
ENCODING 195
SWIDTH 2638 0
DWIDTH 63 0
BBX 63 5 0 0
BITMAP
f80000000000003e
ffff00000001fffe
07ffffc007ffffc0
0000fffffffe0000
0000003ff8000000
ENDCHAR
STARTCHAR UpPointer
ENCODING 196
SWIDTH 600 0
DWIDTH 14 0
BBX 9 5 3 4
BITMAP
0800
1c00
3e00
7f00
ff80
ENDCHAR
STARTCHAR RightPointer
ENCODING 197
SWIDTH 600 0
DWIDTH 14 0
BBX 5 9 5 2
BITMAP
80
c0
e0
f0
f8
f0
e0
c0
80
ENDCHAR
STARTCHAR DownPointer
ENCODING 198
SWIDTH 600 0
DWIDTH 14 0
BBX 9 5 3 4
BITMAP
ff80
7f00
3e00
1c00
0800
ENDCHAR
STARTCHAR LeftPointer
ENCODING 199
SWIDTH 600 0
DWIDTH 14 0
BBX 5 9 5 2
BITMAP
08
18
38
78
f8
78
38
18
08
ENDCHAR
STARTCHAR UpLHookExt
ENCODING 200
SWIDTH 199 0
DWIDTH 5 0
BBX 4 5 0 5
BITMAP
e0
f0
30
f0
e0
ENDCHAR
STARTCHAR UpRHookExt
ENCODING 201
SWIDTH 199 0
DWIDTH 5 0
BBX 4 5 1 5
BITMAP
70
f0
c0
f0
70
ENDCHAR
STARTCHAR nbspace
ENCODING 202
SWIDTH 263 0
DWIDTH 6 0
BBX 0 0 0 0
BITMAP
ENDCHAR
STARTCHAR XBox
ENCODING 203
SWIDTH 600 0
DWIDTH 14 0
BBX 11 11 2 0
BITMAP
ffe0
c060
a0a0
9120
8a20
8420
8a20
9120
a0a0
c060
ffe0
ENDCHAR
STARTCHAR SmileyFace
ENCODING 204
SWIDTH 600 0
DWIDTH 14 0
BBX 12 14 1 0
BITMAP
0f00
30c0
4020
4020
9110
8010
8010
8010
8010
9090
4f20
4020
30c0
0f00
ENDCHAR
STARTCHAR StraightFace
ENCODING 205
SWIDTH 600 0
DWIDTH 14 0
BBX 12 14 1 0
BITMAP
0f00
30c0
4020
4020
9110
8010
8010
8010
8010
9f90
4020
4020
30c0
0f00
ENDCHAR
STARTCHAR FrownFace
ENCODING 206
SWIDTH 600 0
DWIDTH 14 0
BBX 12 14 1 0
BITMAP
0f00
30c0
4020
4020
9110
8010
8010
8010
8f10
9090
4020
4020
30c0
0f00
ENDCHAR
STARTCHAR ShockFace
ENCODING 207
SWIDTH 600 0
DWIDTH 14 0
BBX 14 17 0 0
BITMAP
0100
1120
1020
8784
1860
2010
2010
4488
4008
4008
4008
4308
4488
2490
2310
1860
0780
ENDCHAR
STARTCHAR Strike1
ENCODING 208
SWIDTH 600 0
DWIDTH 14 0
BBX 3 7 6 3
BITMAP
60
60
60
e0
c0
c0
c0
ENDCHAR
STARTCHAR Strike2
ENCODING 209
SWIDTH 600 0
DWIDTH 14 0
BBX 4 12 5 0
BITMAP
30
30
30
60
60
60
60
60
60
c0
c0
c0
ENDCHAR
STARTCHAR Strike3
ENCODING 210
SWIDTH 600 0
DWIDTH 14 0
BBX 5 16 4 -2
BITMAP
18
18
18
30
30
30
30
30
60
60
60
60
60
e0
c0
c0
ENDCHAR
STARTCHAR Strike4
ENCODING 211
SWIDTH 600 0
DWIDTH 14 0
BBX 6 19 4 -3
BITMAP
0c
0c
08
18
18
18
18
30
30
30
30
30
60
60
60
60
60
c0
c0
ENDCHAR
STARTCHAR Strike5
ENCODING 212
SWIDTH 600 0
DWIDTH 14 0
BBX 7 21 4 -3
BITMAP
06
06
0c
0c
0c
0c
18
18
18
18
38
30
30
30
30
60
60
60
60
c0
c0
ENDCHAR
STARTCHAR Strike6
ENCODING 213
SWIDTH 600 0
DWIDTH 14 0
BBX 7 24 4 -5
BITMAP
06
06
0c
0c
0c
0c
0c
18
18
18
18
18
30
30
30
30
30
60
60
60
60
60
c0
c0
ENDCHAR
STARTCHAR KeyBar
ENCODING 214
SWIDTH 88 0
DWIDTH 2 0
BBX 6 3 -2 5
BITMAP
fc
fc
fc
ENDCHAR
STARTCHAR DownLHookExt
ENCODING 215
SWIDTH 199 0
DWIDTH 5 0
BBX 4 5 0 1
BITMAP
e0
f0
30
f0
e0
ENDCHAR
STARTCHAR DownRHookExt
ENCODING 216
SWIDTH 199 0
DWIDTH 5 0
BBX 4 5 1 1
BITMAP
70
f0
c0
f0
70
ENDCHAR
STARTCHAR Icos
ENCODING 217
SWIDTH 901 0
DWIDTH 22 0
BBX 20 17 1 -2
BITMAP
00c600
1f3a00
092600
0a1600
0e0a00
07fdf0
7e9420
899240
5162c0
30e1a0
7e5fc0
2de700
08e300
04d300
0d2b00
0eff00
070000
ENDCHAR
STARTCHAR KernalIcon
ENCODING 218
SWIDTH 837 0
DWIDTH 20 0
BBX 19 19 1 -3
BITMAP
03f800
0e0e00
188b00
2db880
6a58c0
4a3840
c47860
9fb7a0
eaa920
b1c920
908fa0
bff620
cd4c60
45ac40
666cc0
2b9080
1c0300
0e0e00
03f800
ENDCHAR
STARTCHAR LightBulb
ENCODING 219
SWIDTH 612 0
DWIDTH 15 0
BBX 13 20 1 -3
BITMAP
0400
2440
2040
8f08
30c0
2040
4020
4020
4020
4020
2040
30c0
1080
0900
0900
0900
0000
0f00
0000
0600
ENDCHAR
STARTCHAR WarningSign
ENCODING 220
SWIDTH 660 0
DWIDTH 16 0
BBX 14 15 1 0
BITMAP
0300
0300
0480
0480
0840
0b40
1320
1320
2310
2310
4308
4008
4308
8004
fffc
ENDCHAR
STARTCHAR WatchIcon
ENCODING 221
SWIDTH 597 0
DWIDTH 14 0
BBX 12 18 1 -2
BITMAP
3f80
3f80
3f80
3f80
3f80
4040
8420
8420
8430
9c30
8020
8020
8020
4040
3f80
3f80
3f80
3f80
ENDCHAR
STARTCHAR Cedilla
ENCODING 222
SWIDTH 600 0
DWIDTH 14 0
BBX 3 4 6 -4
BITMAP
40
60
20
e0
ENDCHAR
STARTCHAR Ogonek
ENCODING 223
SWIDTH 600 0
DWIDTH 14 0
BBX 3 4 5 -4
BITMAP
40
80
80
e0
ENDCHAR
STARTCHAR AltKey
ENCODING 224
SWIDTH 1174 0
DWIDTH 28 0
BBX 24 18 2 -3
BITMAP
ffffff
800001
800001
800001
8209fd
820821
850821
850821
850821
888821
8f8821
888821
904821
904f21
800001
800001
800001
ffffff
ENDCHAR
STARTCHAR CmdKey
ENCODING 225
SWIDTH 1318 0
DWIDTH 32 0
BBX 28 18 2 -3
BITMAP
fffffff0
80000010
80000010
80000010
8e60de10
9160d110
91515090
90515090
90515090
90595090
904a5090
914a5090
914a5110
8e445e10
80000010
80000010
80000010
fffffff0
ENDCHAR
STARTCHAR CtrlKey
ENCODING 226
SWIDTH 1379 0
DWIDTH 33 0
BBX 29 18 2 -3
BITMAP
fffffff8
80000008
80000008
80000008
8effe208
91111208
91111208
90111208
9011e208
90113208
90111208
91111208
91111208
8e1113c8
80000008
80000008
80000008
fffffff8
ENDCHAR
STARTCHAR DelKey
ENCODING 227
SWIDTH 1143 0
DWIDTH 27 0
BBX 23 18 2 -3
BITMAP
fffffe
800002
800002
800002
9e3e82
912082
90a082
90a082
90be82
90a082
90a082
90a082
912082
9e3ef2
800002
800002
800002
fffffe
ENDCHAR
STARTCHAR EntKey
ENCODING 228
SWIDTH 1146 0
DWIDTH 28 0
BBX 24 18 2 -3
BITMAP
ffffff
800001
800001
800001
9f65fd
906421
906421
905421
9f5421
905421
905421
905421
904c21
9f4c21
800001
800001
800001
ffffff
ENDCHAR
STARTCHAR EscKey
ENCODING 229
SWIDTH 1146 0
DWIDTH 28 0
BBX 24 18 2 -3
BITMAP
ffffff
800001
800001
800001
8f9c71
882289
882089
882081
8f9881
880481
880281
882289
882289
8f9c71
800001
800001
800001
ffffff
ENDCHAR
STARTCHAR OptKey
ENCODING 230
SWIDTH 1187 0
DWIDTH 28 0
BBX 24 18 2 -3
BITMAP
ffffff
800001
800001
800001
8f3dfd
90a221
90a221
90a221
90bc21
90a021
90a021
90a021
90a021
8f2021
800001
800001
800001
ffffff
ENDCHAR
STARTCHAR RetKey
ENCODING 231
SWIDTH 1174 0
DWIDTH 28 0
BBX 24 18 2 -3
BITMAP
ffffff
800001
800001
800001
8f1f7d
889011
889011
889011
8f1f11
899011
889011
889011
889011
889f11
800001
800001
800001
ffffff
ENDCHAR
STARTCHAR ShftKey
ENCODING 232
SWIDTH 1448 0
DWIDTH 35 0
BBX 31 18 2 -3
BITMAP
fffffffe
80000002
80000002
80000002
87227bfa
88a24042
88224042
88224042
863e7042
81224042
80a24042
88a24042
88a24042
87224042
80000002
80000002
80000002
fffffffe
ENDCHAR
STARTCHAR SpcKey
ENCODING 233
SWIDTH 1187 0
DWIDTH 28 0
BBX 24 18 2 -3
BITMAP
ffffff
800001
800001
800001
873c71
88a289
882289
882281
863c81
812081
80a081
88a089
88a089
872071
800001
800001
800001
ffffff
ENDCHAR
STARTCHAR TabKey
ENCODING 234
SWIDTH 1177 0
DWIDTH 28 0
BBX 24 18 2 -3
BITMAP
ffffff
800001
800001
800001
bfa1e1
842111
845111
845111
8451f1
848919
84f909
848909
850519
8505f1
800001
800001
800001
ffffff
ENDCHAR
STARTCHAR LKeyBracket
ENCODING 235
SWIDTH 245 0
DWIDTH 6 0
BBX 6 26 -1 -7
BITMAP
1c
10
10
10
10
10
10
10
10
10
10
f0
f0
f0
10
10
10
10
10
10
10
10
10
10
10
1c
ENDCHAR
STARTCHAR RKeyBracket
ENCODING 236
SWIDTH 245 0
DWIDTH 6 0
BBX 3 26 1 -7
BITMAP
e0
20
20
20
20
20
20
20
20
20
20
20
20
20
20
20
20
20
20
20
20
20
20
20
20
e0
ENDCHAR
STARTCHAR CloverLeaf
ENCODING 237
SWIDTH 600 0
DWIDTH 14 0
BBX 14 13 0 0
BITMAP
7038
8844
8844
8844
7ff8
0840
0840
0840
7ff8
8844
8844
8844
7038
ENDCHAR
STARTCHAR DottedSquare
ENCODING 238
SWIDTH 764 0
DWIDTH 18 0
BBX 16 16 1 0
BITMAP
f18f
8001
8001
8001
0000
0000
0000
8001
8001
0000
0000
0000
8001
8001
8001
f18f
ENDCHAR
STARTCHAR RoundSpaceIndicator
ENCODING 239
SWIDTH 250 0
DWIDTH 6 0
BBX 5 2 1 -3
BITMAP
88
70
ENDCHAR
STARTCHAR CommandKey
ENCODING 240
SWIDTH 2643 0
DWIDTH 63 0
BBX 59 18 2 -3
BITMAP
ffffffffffffffe0
8000000000000020
8000000000000020
8000000000000020
8e3cc1b0610cbc20
9166c1b0610ca220
9142a2a8a28ca120
9042a2a8a28aa120
9042a2a8a28aa120
9042b2a8a44aa120
904294a527caa120
914294a5244aa120
916694a52829a220
8e3c88a22829bc20
8000000000000020
8000000000000020
8000000000000020
ffffffffffffffe0
ENDCHAR
STARTCHAR ControlKey
ENCODING 241
SWIDTH 2327 0
DWIDTH 56 0
BBX 52 18 2 -3
BITMAP
fffffffffffff0
80000000000010
80000000000010
80000000000010
8e1e32fef0f210
91213210890a10
91213210890a10
90212a10890a10
90212a10f10a10
90212a10990a10
90212a10890a10
91212a10890a10
91212610890a10
8e1e261088f3d0
80000000000010
80000000000010
80000000000010
fffffffffffff0
ENDCHAR
STARTCHAR DeleteKey
ENCODING 242
SWIDTH 1890 0
DWIDTH 45 0
BBX 41 18 2 -3
BITMAP
ffffffffff80
800000000080
800000000080
800000000080
9e3e87df3e80
912084042080
90a084042080
90a084042080
90be87c43e80
90a084042080
90a084042080
90a084042080
912084042080
9e3ef7c43e80
800000000080
800000000080
800000000080
ffffffffff80
ENDCHAR
STARTCHAR EnterKey
ENCODING 243
SWIDTH 1668 0
DWIDTH 40 0
BBX 36 18 2 -3
BITMAP
fffffffff0
8000000010
8000000010
8000000010
9f65fdf790
9064210450
9064210450
9054210450
9f5421f790
90542104d0
9054210450
9054210450
904c210450
9f4c21f450
8000000010
8000000010
8000000010
fffffffff0
ENDCHAR
STARTCHAR EscapeKey
ENCODING 244
SWIDTH 2000 0
DWIDTH 48 0
BBX 44 18 2 -3
BITMAP
fffffffffff0
800000000010
800000000010
800000000010
8f9c7043cf90
882288422810
882088a22810
882080a22810
8f9880a3cf90
880481120810
880281f20810
882289120810
88228a0a0810
8f9c720a0f90
800000000010
800000000010
800000000010
fffffffffff0
ENDCHAR
STARTCHAR OptionKey
ENCODING 245
SWIDTH 1869 0
DWIDTH 45 0
BBX 41 18 2 -3
BITMAP
ffffffffff80
800000000080
800000000080
800000000080
8f3dfd3cc880
90a22142c880
90a22142c880
90a22142a880
90bc2142a880
90a02142a880
90a02142a880
90a02142a880
90a021429880
8f20213c9880
800000000080
800000000080
800000000080
ffffffffff80
ENDCHAR
STARTCHAR ReturnKey
ENCODING 246
SWIDTH 2015 0
DWIDTH 48 0
BBX 44 18 2 -3
BITMAP
fffffffffff0
800000000010
800000000010
800000000010
9e3efa178c90
912022144c90
912022144c90
912022144a90
9e3e22178a90
93202214ca90
912022144a90
912022144a90
912023344990
913e21e44990
800000000010
800000000010
800000000010
fffffffffff0
ENDCHAR
STARTCHAR ShiftKey
ENCODING 247
SWIDTH 1563 0
DWIDTH 38 0
BBX 34 18 2 -3
BITMAP
ffffffffc0
8000000040
8000000040
8000000040
8e449efe40
9144901040
9044901040
9044901040
8c7c9c1040
8244901040
8144901040
9144901040
9144901040
8e44901040
8000000040
8000000040
8000000040
ffffffffc0
ENDCHAR
STARTCHAR SpaceKey
ENCODING 248
SWIDTH 1699 0
DWIDTH 41 0
BBX 37 18 2 -3
BITMAP
fffffffff8
8000000008
8000000008
8000000008
873c20e7c8
88a2211408
8822511408
8822510408
863c5107c8
8120890408
80a0f90408
88a0891408
88a1051408
872104e7c8
8000000008
8000000008
8000000008
fffffffff8
ENDCHAR
STARTCHAR Mod1Key
ENCODING 249
SWIDTH 1543 0
DWIDTH 37 0
BBX 33 18 2 -3
BITMAP
ffffffff80
8000000080
8000000080
8000000080
9833cf0c80
9834289480
9454284480
9454284480
9454284480
9654284480
9294284480
9294284480
9294288480
9113cf0480
8000000080
8000000080
8000000080
ffffffff80
ENDCHAR
STARTCHAR Mod2Key
ENCODING 250
SWIDTH 1655 0
DWIDTH 40 0
BBX 36 18 2 -3
BITMAP
fffffffff0
8000000010
8000000010
8000000010
9833cf0e10
9834289110
9454285110
9454284110
9454284210
9654284410
9294284410
9294284810
9294289010
9113cf1f10
8000000010
8000000010
8000000010
fffffffff0
ENDCHAR
STARTCHAR RKeyBracket2
ENCODING 251
SWIDTH 245 0
DWIDTH 6 0
BBX 3 26 1 -7
BITMAP
e0
80
80
80
80
80
80
80
80
80
80
80
80
80
80
80
80
80
80
80
80
80
80
80
80
e0
ENDCHAR
STARTCHAR LUpHookExt
ENCODING 252
SWIDTH 600 0
DWIDTH 14 0
BBX 5 4 2 0
BITMAP
d8
d8
f8
70
ENDCHAR
STARTCHAR RUpHookExt
ENCODING 253
SWIDTH 282 0
DWIDTH 14 0
BBX 5 4 7 0
BITMAP
d8
d8
f8
70
ENDCHAR
STARTCHAR LDownHookExt
ENCODING 254
SWIDTH 282 0
DWIDTH 14 0
BBX 5 4 2 0
BITMAP
70
f8
d8
d8
ENDCHAR
STARTCHAR RDownHookExt
ENCODING 255
SWIDTH 0 0
DWIDTH 14 0
BBX 5 4 7 0
BITMAP
70
f8
d8
d8
ENDCHAR
ENDFONT
